<svg xmlns="http://www.w3.org/2000/svg" xmlns:xlink="http://www.w3.org/1999/xlink" id="home" x="0" y="0" version="1.1" viewBox="0 0 16 16" style="enable-background:new 0 0 16 16" xml:space="preserve"><style type="text/css">.st0{fill:none}</style><rect id="Rectangle_838" width="16" height="16" class="st0"/><g><path d="M6,8.4C6,8.4,6,8.4,6,8.4H2c-0.9,0-1.6,0.7-1.6,1.6V14c0,0.9,0.7,1.6,1.6,1.6H6c0,0,0,0,0,0c0.9,0,1.6-0.7,1.6-1.6V10 C7.6,9.2,6.8,8.4,6,8.4z M1.8,10c0-0.1,0.1-0.2,0.2-0.2H6c0.1,0,0.1,0,0.2,0.1c0,0,0.1,0.1,0.1,0.2V14h0.1l-0.1,0 c0,0.1,0,0.1-0.1,0.2c0,0-0.1,0.1-0.2,0.1H2c-0.1,0-0.2-0.1-0.2-0.2V10z"/><path d="M6,0.4C6,0.4,6,0.4,6,0.4H2C1.1,0.4,0.4,1.1,0.4,2V6c0,0.9,0.7,1.6,1.6,1.6h3.9l0,0H6c0.4,0,0.8-0.2,1.1-0.5 C7.4,6.8,7.6,6.4,7.6,6V2C7.6,1.1,6.8,0.4,6,0.4z M6.2,6c0,0.1,0,0.1-0.1,0.2c0,0-0.1,0.1-0.2,0.1H2C1.9,6.2,1.8,6.1,1.8,6V2 c0-0.1,0.1-0.2,0.2-0.2l3.9,0c0.1,0,0.2,0.1,0.2,0.2V6L6.2,6L6.2,6z"/><path d="M14,11C14,11,14,11,14,11H10c-0.9,0-1.6,0.7-1.6,1.6V14c0,0.9,0.7,1.6,1.6,1.6c0,0,0,0,0,0H14c0.9,0,1.6-0.7,1.6-1.6v-1.4 C15.6,11.7,14.9,11,14,11z M14.2,14c0,0.1-0.1,0.2-0.2,0.2H10c-0.1,0-0.2-0.1-0.2-0.2v-1.4c0-0.1,0.1-0.2,0.2-0.2H14 c0.1,0,0.2,0.1,0.2,0.2V14z"/><path d="M14,0.4H10c0,0,0,0,0,0c-0.4,0-0.8,0.2-1.1,0.5C8.6,1.2,8.4,1.6,8.4,2v6.5c0,0.4,0.2,0.8,0.5,1.1s0.7,0.5,1.1,0.5 c0,0,0,0,0,0H14c0.9,0,1.6-0.7,1.6-1.6V2C15.6,1.1,14.9,0.4,14,0.4z M9.8,8.5V2c0-0.1,0.1-0.2,0.2-0.2c0,0,0,0,0,0H14 c0.1,0,0.2,0.1,0.2,0.2v6.5c0,0.1-0.1,0.2-0.2,0.2H10C9.9,8.8,9.8,8.7,9.8,8.5z"/></g></svg>